<?xml version="1.0" encoding="UTF-8"?>
<svg width="136px" height="178px" viewBox="0 0 136 178" version="1.1" xmlns="http://www.w3.org/2000/svg" xmlns:xlink="http://www.w3.org/1999/xlink">
    <!-- Generator: Sketch 55.2 (78181) - https://sketchapp.com -->
    <title>logo splash</title>
    <desc>Created with Sketch.</desc>
    <defs>
        <path d="M57.0116296,1.47121636 C60.407845,-0.490405453 64.592155,-0.490405453 67.9883704,1.47121636 L119.51163,31.2305622 C122.907845,33.192184 125,36.8174106 125,40.7406542 L125,100.259346 C125,104.182589 122.907845,107.807816 119.51163,109.769438 L67.9883704,139.528784 C64.592155,141.490405 60.407845,141.490405 57.0116296,139.528784 L5.4883704,109.769438 C2.09215498,107.807816 0,104.182589 0,100.259346 L0,40.7406542 C0,36.8174106 2.09215498,33.192184 5.4883704,31.2305622 L57.0116296,1.47121636 Z" id="path-1"></path>
        <linearGradient x1="87.4125143%" y1="45.0862699%" x2="15.1020685%" y2="61.3850659%" id="linearGradient-3">
            <stop stop-color="#FD8200" offset="0%"></stop>
            <stop stop-color="#FF9800" offset="100%"></stop>
        </linearGradient>
        <linearGradient x1="51.9266244%" y1="33.1683392%" x2="57.6585176%" y2="57.9546384%" id="linearGradient-4">
            <stop stop-color="#E45000" offset="0%"></stop>
            <stop stop-color="#FF8300" offset="100%"></stop>
        </linearGradient>
        <linearGradient x1="36.2705321%" y1="30.9278989%" x2="62.9018474%" y2="70.8161617%" id="linearGradient-5">
            <stop stop-color="#D12600" offset="0%"></stop>
            <stop stop-color="#E45000" offset="100%"></stop>
        </linearGradient>
        <linearGradient x1="33.9120632%" y1="38.1671529%" x2="64.784675%" y2="65.1420869%" id="linearGradient-6">
            <stop stop-color="#B72202" offset="0%"></stop>
            <stop stop-color="#D12600" offset="100%"></stop>
        </linearGradient>
        <linearGradient x1="44.0869624%" y1="73.4108938%" x2="27.0308862%" y2="36.3628362%" id="linearGradient-7">
            <stop stop-color="#D12600" offset="0%"></stop>
            <stop stop-color="#E45000" offset="100%"></stop>
        </linearGradient>
        <linearGradient x1="59.208752%" y1="97.2046395%" x2="59.208752%" y2="30.7755252%" id="linearGradient-8">
            <stop stop-color="#B72202" offset="0%"></stop>
            <stop stop-color="#D12600" offset="100%"></stop>
        </linearGradient>
        <linearGradient x1="-24.6221673%" y1="46.3118976%" x2="72.9262523%" y2="63.3517481%" id="linearGradient-9">
            <stop stop-color="#FFDE48" offset="0%"></stop>
            <stop stop-color="#FFA500" offset="100%"></stop>
        </linearGradient>
        <linearGradient x1="50%" y1="5.04604324%" x2="53.2410427%" y2="100%" id="linearGradient-10">
            <stop stop-color="#B72202" offset="0%"></stop>
            <stop stop-color="#930F02" offset="100%"></stop>
        </linearGradient>
    </defs>
    <g id="pages" stroke="none" stroke-width="1" fill="none" fill-rule="evenodd">
        <g id="Desktop" transform="translate(-444.000000, -206.000000)">
            <g id="logo-splash" transform="translate(443.000000, 202.000000)">
                <g id="logo-cube" fill-rule="evenodd" stroke-width="1">
                    <g id="Group-2">
                        <g id="Group" transform="translate(4.000000, 4.000000)">
                            <mask id="mask-2" fill="white">
                                <use xlink:href="#path-1"></use>
                            </mask>
                            <g id="Polygon" fill-rule="nonzero"></g>
                            <polygon id="Path-18" fill="url(#linearGradient-3)" mask="url(#mask-2)" points="-10.8961352 79.6457858 23.5594351 82.6328593 96.807452 39.1924128 134.708738 25.4527221 133.084986 118.842586 57.0524884 125.647564 -21.0355987 101.962788"></polygon>
                            <path d="M125.956413,108.071952 C117.355877,109.864246 111.748886,107.618608 109.13544,101.335037 C105.215271,91.9096809 102.792168,87.4192565 94.9565895,82.9198682 C87.1210114,78.4204799 80.1359935,78.4204799 67.5566343,84.3275141 C54.9772751,90.2345483 37.8236246,97.4615885 25.8899676,101.335037 C13.9150461,105.22188 4.9097079,106.391276 -1.5703125,106.391276 C-5.8903261,106.391276 -0.705707343,115.700443 13.9835438,134.318775 L59.6848238,151.504298 L129.854369,121.977491 L125.956413,108.071952 Z" id="Path-11" fill="url(#linearGradient-4)" mask="url(#mask-2)"></path>
                            <path d="M-15.3721683,82.8085938 C-6.30828661,88.4365234 4.15968224,91.2504883 16.0317383,91.2504883 C30.8710937,91.2504883 42.4272461,88.8300781 55.1498573,80.4936232 C64.3576058,74.4602721 69.3543689,65.2679083 77.5112275,57.7900847 C93.1118351,43.4881828 101.585097,39.5884588 126.231771,33.1489971 C142.662887,28.8560227 137.129474,23.3345327 109.631534,16.5845272 L61.2754509,25.3197831 L-12.6851181,49.8891812 L-15.3721683,82.8085938 Z" id="Path-15" fill="#E45000" mask="url(#mask-2)"></path>
                            <path d="M56.8167747,128.618552 C50.778195,127.667254 40.2288369,120.684159 39.0360703,115.664744 C37.8433037,110.64533 41.1416993,102.154286 55.6731575,97.1773639 C70.2046157,92.2004416 81.8993313,83.4189968 90.5651783,89.1294441 C99.2310253,94.8398914 100.32625,104.284451 87.0849504,116.361587 C73.8436506,128.438723 62.8553545,129.569851 56.8167747,128.618552 Z" id="Path-9" fill="url(#linearGradient-5)" mask="url(#mask-2)"></path>
                            <path d="M65.7710825,102.897797 C60.1221081,105.075139 54.772131,105.687589 52.354986,108.280833 C48.3804982,112.544878 53.6575645,118.375733 57.9105212,119.630867 C64.749978,121.649328 76.5791919,114.747287 81.7536084,109.990917 C86.9280249,105.234547 90.6429089,99.8653537 84.7554384,96.9891511 C78.867968,94.1129486 75.0764667,99.3111279 65.7710825,102.897797 Z" id="Path-10" fill="url(#linearGradient-6)" mask="url(#mask-2)"></path>
                            <path d="M-10.4731445,25.4527221 C-5.7678128,63.7326459 6.84042288,82.0482099 27.3515625,80.3994141 C46.9490518,78.8240623 52.5317383,72.7768555 65.5468714,56.5156515 C78.5620045,40.2544476 88.9529693,26.7623059 105.659457,19.6621497 C116.797115,14.9287123 116.010482,10.2140738 103.299557,5.51823435 L51.5198567,-10.8882521 L-10.4731445,25.4527221 Z" id="Path-13" fill="url(#linearGradient-7)" mask="url(#mask-2)"></path>
                            <path d="M8.09061489,15.8131916 C8.45183181,49.9353866 13.9563173,68.0508216 24.6040713,70.1594965 C40.5757023,73.322509 50.2409109,62.0943984 58.3783844,51.0169579 C66.5158579,39.9395174 71.9907979,10.2914483 62.680053,-0.404011461" id="Path-12" fill="url(#linearGradient-8)" mask="url(#mask-2)"></path>
                            <path d="" id="Path-14" stroke="#979797" stroke-width="10" mask="url(#mask-2)"></path>
                            <path d="M125.841128,46.0573066 C115.182664,47.7657474 107.125015,49.9909991 101.668183,52.7330617 C93.4829354,56.8461555 86.0506324,64.5699298 87.7605178,68.6490379 C89.9082604,73.7726997 104.5775,73.1199361 110.908764,80.9984671 C113.242703,83.9027875 118.873904,86.0544413 125,86.0544413 C129.084064,86.0544413 132.185466,86.8624642 134.304207,88.47851 L131.983638,46.0573066 L125.841128,46.0573066 Z" id="Path-16" fill="url(#linearGradient-9)" mask="url(#mask-2)"></path>
                            <path d="M26.6766317,54.7189523 C28.1268647,57.6325431 31.9147376,61.6514516 36.6516927,60.4521029 C41.3886478,59.2527541 49.0745406,50.1224154 52.1568023,44.998165 C55.239064,39.8739146 60.3256588,20.656748 53.9029189,15.7249206 C47.480179,10.7930932 30.9600431,27.3196052 26.6766317,35.9190285 C22.7175908,43.8672421 24.0767157,49.4955908 26.6766317,54.7189523 Z" id="Path-17" fill="url(#linearGradient-10)" mask="url(#mask-2)"></path>
                        </g>
                    </g>
                </g>
                <path d="M7.54853387,181.245703 C5.50100088,181.245703 3.94034915,180.647377 2.86653185,179.450708 C1.79271455,178.254039 1.25581395,176.520487 1.25581395,174.25 C1.25581395,171.979513 1.81318957,170.232311 2.92795753,169.008342 C4.04272549,167.784372 5.66025229,167.172396 7.78058645,167.172396 C9.21840962,167.172396 10.506061,167.436297 11.6435794,167.964105 L10.7699697,170.284631 C9.56875031,169.811423 8.5631992,169.574823 7.75328615,169.574823 C5.40544832,169.574823 4.23154702,171.135475 4.23154702,174.256825 C4.23154702,175.77655 4.52274734,176.920876 5.10515672,177.689838 C5.68756611,178.458801 6.54296706,178.843276 7.67138524,178.843276 C8.95450591,178.843276 10.1739073,178.520226 11.3296259,177.874115 L11.3296259,180.399393 C10.3559102,180.963602 9.0955588,181.245703 7.54853387,181.245703 Z M20.1339737,169.520222 C17.8407368,169.520222 16.6941355,171.080874 16.6941355,174.202224 C16.6941355,177.323575 17.8498368,178.884226 20.161274,178.884226 C22.454511,178.884226 23.6011122,177.323575 23.6011122,174.202224 C23.6011122,171.080874 22.445411,169.520222 20.1339737,169.520222 Z M13.7184024,174.188574 C13.7184024,171.968139 14.2826031,170.243687 15.4110212,169.015167 C16.5394394,167.786647 18.1091912,167.172396 20.1203236,167.172396 C22.131456,167.172396 23.7103077,167.807122 24.8569262,169.076593 C26.0035447,170.346063 26.5768453,172.06824 26.5768453,174.243175 C26.5768453,176.41811 26.0080947,178.128912 24.8705763,179.375632 C23.733058,180.622352 22.1496563,181.245703 20.1203236,181.245703 C18.2092928,181.282103 16.657741,180.642828 15.4656218,179.327856 C14.2735026,178.012885 13.691102,176.299808 13.7184024,174.188574 Z M41.851365,172.141052 L41.851365,181 L38.9438827,181 L38.9438827,172.646107 C38.9438827,171.59049 38.7323075,170.805614 38.3091507,170.291456 C37.8859938,169.777298 37.2194181,169.520222 36.3094034,169.520222 C35.0899838,169.520222 34.1981828,169.884223 33.6339737,170.612235 C33.0697646,171.340246 32.7876643,172.545998 32.7876643,174.229525 L32.7876643,181 L29.8938322,181 L29.8938322,167.418099 L32.1597573,167.418099 L32.5556117,169.192619 L32.7057634,169.192619 C33.11527,168.546508 33.6953956,168.048283 34.4461577,167.697927 C35.1969198,167.347572 36.0363958,167.172396 36.9646107,167.172396 C40.2224632,167.172396 41.851365,168.828598 41.851365,172.141052 Z M49.0313448,176.877654 C49.0313448,177.551065 49.20197,178.058391 49.5432255,178.399646 C49.884481,178.740902 50.3758815,178.911527 51.0174419,178.911527 C51.6590022,178.911527 52.3346779,178.802327 53.0444894,178.583923 L53.0444894,180.754297 C52.2709769,181.081903 51.3382259,181.245703 50.2462083,181.245703 C47.5070642,181.245703 46.1375126,179.803351 46.1375126,176.918605 L46.1375126,169.602123 L44.281092,169.602123 L44.281092,168.319009 L46.2740142,167.267947 L47.2568251,164.387765 L49.0313448,164.387765 L49.0313448,167.418099 L52.9079879,167.418099 L52.9079879,169.602123 L49.0313448,169.602123 L49.0313448,176.877654 Z M61.3574317,169.520222 C59.0641948,169.520222 57.9175935,171.080874 57.9175935,174.202224 C57.9175935,177.323575 59.0732948,178.884226 61.3847321,178.884226 C63.677969,178.884226 64.8245703,177.323575 64.8245703,174.202224 C64.8245703,171.080874 63.668869,169.520222 61.3574317,169.520222 Z M54.9418605,174.188574 C54.9418605,171.968139 55.5060611,170.243687 56.6344793,169.015167 C57.7628975,167.786647 59.3326492,167.172396 61.3437816,167.172396 C63.354914,167.172396 64.9337658,167.807122 66.0803842,169.076593 C67.2270027,170.346063 67.8003033,172.06824 67.8003033,174.243175 C67.8003033,176.41811 67.2315527,178.128912 66.0940344,179.375632 C64.9565161,180.622352 63.3731143,181.245703 61.3437816,181.245703 C59.4327508,181.282103 57.8811991,180.642828 56.6890799,179.327856 C55.4969607,178.012885 54.91456,176.299808 54.9418605,174.188574 Z M82.979272,181 L80.6996967,181 L80.2901921,179.22548 L80.1536906,179.22548 C79.744184,179.862491 79.1686084,180.358441 78.4269464,180.713347 C77.6852845,181.068253 76.8412585,181.245703 75.8948433,181.245703 C74.2477167,181.245703 73.0192154,180.836202 72.2093023,180.017189 C71.3993893,179.198176 70.9944388,177.956025 70.9944388,176.290698 L70.9944388,167.418099 L73.9019211,167.418099 L73.9019211,175.785642 C73.9019211,176.841259 74.1180464,177.626135 74.5503033,178.140293 C74.9825603,178.654452 75.649136,178.911527 76.5500506,178.911527 C77.7694702,178.911527 78.6567212,178.552076 79.2118301,177.833165 C79.7851394,177.105153 80.0717897,175.890302 80.0717897,174.188574 L80.0717897,167.418099 L82.979272,167.418099 L82.979272,181 Z M93.9812942,167.172396 C94.5637036,167.172396 95.0414542,167.213346 95.4145602,167.295248 L95.1415571,169.984328 C94.7138502,169.884226 94.2861498,169.834176 93.8584429,169.834176 C92.7118244,169.834176 91.7745234,170.211826 91.0465116,170.967139 C90.3367002,171.722451 89.9817998,172.700702 89.9817998,173.901921 L89.9817998,181 L87.0879676,181 L87.0879676,167.418099 L89.3538928,167.418099 L89.7360971,169.806876 L89.8725986,169.806876 C90.3367061,168.987862 90.9304817,168.344037 91.6539434,167.875379 C92.377405,167.406722 93.1531809,167.172396 93.9812942,167.172396 Z M105.570273,174.202224 C106.571289,174.893836 107.07179,175.885737 107.07179,177.177958 C107.07179,178.470178 106.587214,179.471179 105.618049,180.180991 C104.648883,180.890802 103.265681,181.245703 101.468402,181.245703 C99.6711235,181.245703 98.2173969,180.972702 97.107179,180.426694 L97.107179,177.928716 C98.7088048,178.665828 100.196656,179.034378 101.570779,179.034378 C103.345307,179.034378 104.232558,178.497478 104.232558,177.42366 C104.223458,176.932252 104.014158,176.538677 103.604651,176.242922 C103.195145,175.947167 102.357944,175.539942 101.093023,175.021234 C99.527798,174.411524 98.4676469,173.804098 97.9125379,173.198938 C97.357429,172.593779 97.0798787,171.808903 97.0798787,170.844287 C97.0798787,169.679468 97.5508042,168.776292 98.4926694,168.134732 C99.4345345,167.493172 100.701711,167.172396 102.294237,167.172396 C103.886762,167.172396 105.406464,167.495447 106.853387,168.141557 L105.911527,170.311931 C104.464603,169.702221 103.231552,169.397371 102.212336,169.397371 C100.692611,169.397371 99.9327604,169.834172 99.9327604,170.707786 C99.9327604,171.144593 100.130686,171.506318 100.526542,171.792973 C100.922398,172.079627 101.741399,172.464103 102.983569,172.946411 C104.225739,173.428718 105.087965,173.847319 105.570273,174.202224 Z M112.927705,180.849848 C112.6092,181.186554 112.158749,181.354904 111.57634,181.354904 C110.99393,181.354904 110.545755,181.188829 110.2318,180.856673 C109.917845,180.524518 109.76087,180.060418 109.76087,179.464358 C109.76087,178.868298 109.91557,178.411023 110.224975,178.092518 C110.53438,177.774013 110.98483,177.614762 111.57634,177.614762 C112.167849,177.614762 112.620575,177.778563 112.93453,178.106168 C113.248485,178.433773 113.40546,178.888774 113.40546,179.471183 C113.40546,180.053592 113.24621,180.513143 112.927705,180.849848 Z M119.998483,167.418099 L119.998483,181 L117.104651,181 L117.104651,167.418099 L119.998483,167.418099 Z M120.175935,163.800809 C120.175935,164.301317 120.034885,164.692617 119.752781,164.974722 C119.470676,165.256826 119.072551,165.397877 118.558392,165.397877 C118.044234,165.397877 117.646109,165.256826 117.364004,164.974722 C117.081899,164.692617 116.940849,164.299042 116.940849,163.793984 C116.940849,163.288926 117.081899,162.897625 117.364004,162.620071 C117.646109,162.342516 118.044234,162.203741 118.558392,162.203741 C119.072551,162.203741 119.470676,162.342516 119.752781,162.620071 C120.034885,162.897625 120.175935,163.291201 120.175935,163.800809 Z M129.731041,169.520222 C127.437805,169.520222 126.291203,171.080874 126.291203,174.202224 C126.291203,177.323575 127.446905,178.884226 129.758342,178.884226 C132.051579,178.884226 133.19818,177.323575 133.19818,174.202224 C133.19818,171.080874 132.042479,169.520222 129.731041,169.520222 Z M123.31547,174.188574 C123.31547,171.968139 123.879671,170.243687 125.008089,169.015167 C126.136507,167.786647 127.706259,167.172396 129.717391,167.172396 C131.728524,167.172396 133.307375,167.807122 134.453994,169.076593 C135.600612,170.346063 136.173913,172.06824 136.173913,174.243175 C136.173913,176.41811 135.605162,178.128912 134.467644,179.375632 C133.330126,180.622352 131.746724,181.245703 129.717391,181.245703 C127.806361,181.282103 126.254809,180.642828 125.06269,179.327856 C123.87057,178.012885 123.28817,176.299808 123.31547,174.188574 Z" id="contours.io" fill="#000000" fill-rule="nonzero"></path>
            </g>
        </g>
    </g>
</svg>